<mxfile host="app.diagrams.net" modified="2024-05-18T07:01:23.339Z" agent="Mozilla/5.0 (Windows NT 10.0; Win64; x64) AppleWebKit/537.36 (KHTML, like Gecko) Chrome/124.0.0.0 Safari/537.36 Edg/124.0.0.0" etag="nxsIbwIxu-5Ng13XF442" version="24.2.5" type="device">
  <diagram name="Page-1" id="JXPOQNhSRIBmJtTvOmMU">
    <mxGraphModel dx="1290" dy="611" grid="1" gridSize="10" guides="1" tooltips="1" connect="1" arrows="1" fold="1" page="1" pageScale="1" pageWidth="850" pageHeight="1100" math="0" shadow="0">
      <root>
        <mxCell id="0" />
        <mxCell id="1" parent="0" />
        <mxCell id="kx2uJT2e34iplQoMzItJ-1" value="ESP32 MCU" style="rounded=1;whiteSpace=wrap;html=1;" parent="1" vertex="1">
          <mxGeometry x="640" y="370" width="120" height="230" as="geometry" />
        </mxCell>
        <mxCell id="kx2uJT2e34iplQoMzItJ-2" value="Current Sensor" style="rounded=1;whiteSpace=wrap;html=1;" parent="1" vertex="1">
          <mxGeometry x="250" y="370" width="120" height="60" as="geometry" />
        </mxCell>
        <mxCell id="kx2uJT2e34iplQoMzItJ-17" style="edgeStyle=orthogonalEdgeStyle;rounded=0;orthogonalLoop=1;jettySize=auto;html=1;exitX=1;exitY=0.5;exitDx=0;exitDy=0;entryX=0;entryY=0.5;entryDx=0;entryDy=0;" parent="1" source="kx2uJT2e34iplQoMzItJ-3" target="kx2uJT2e34iplQoMzItJ-1" edge="1">
          <mxGeometry relative="1" as="geometry" />
        </mxCell>
        <mxCell id="kx2uJT2e34iplQoMzItJ-18" value="Analog" style="edgeLabel;html=1;align=center;verticalAlign=middle;resizable=0;points=[];" parent="kx2uJT2e34iplQoMzItJ-17" vertex="1" connectable="0">
          <mxGeometry x="0.0505" y="-2" relative="1" as="geometry">
            <mxPoint y="-2" as="offset" />
          </mxGeometry>
        </mxCell>
        <mxCell id="kx2uJT2e34iplQoMzItJ-3" value="Pressure Sensor" style="rounded=1;whiteSpace=wrap;html=1;" parent="1" vertex="1">
          <mxGeometry x="30" y="455" width="120" height="60" as="geometry" />
        </mxCell>
        <mxCell id="kx2uJT2e34iplQoMzItJ-9" style="edgeStyle=orthogonalEdgeStyle;rounded=0;orthogonalLoop=1;jettySize=auto;html=1;exitX=1;exitY=0.5;exitDx=0;exitDy=0;" parent="1" source="kx2uJT2e34iplQoMzItJ-4" target="kx2uJT2e34iplQoMzItJ-7" edge="1">
          <mxGeometry relative="1" as="geometry" />
        </mxCell>
        <mxCell id="kx2uJT2e34iplQoMzItJ-10" value="AC Mains" style="edgeLabel;html=1;align=center;verticalAlign=middle;resizable=0;points=[];" parent="kx2uJT2e34iplQoMzItJ-9" vertex="1" connectable="0">
          <mxGeometry x="0.2661" y="2" relative="1" as="geometry">
            <mxPoint x="-33" y="2" as="offset" />
          </mxGeometry>
        </mxCell>
        <mxCell id="kx2uJT2e34iplQoMzItJ-4" value="Outlet" style="triangle;whiteSpace=wrap;html=1;" parent="1" vertex="1">
          <mxGeometry x="40" y="270" width="60" height="80" as="geometry" />
        </mxCell>
        <mxCell id="kx2uJT2e34iplQoMzItJ-6" value="" style="endArrow=none;dashed=1;html=1;dashPattern=1 3;strokeWidth=2;rounded=0;" parent="1" edge="1">
          <mxGeometry width="50" height="50" relative="1" as="geometry">
            <mxPoint x="440" y="230" as="sourcePoint" />
            <mxPoint x="800" y="230" as="targetPoint" />
          </mxGeometry>
        </mxCell>
        <mxCell id="kx2uJT2e34iplQoMzItJ-21" style="edgeStyle=orthogonalEdgeStyle;rounded=0;orthogonalLoop=1;jettySize=auto;html=1;exitX=1;exitY=0.5;exitDx=0;exitDy=0;entryX=0;entryY=0.5;entryDx=0;entryDy=0;" parent="1" source="kx2uJT2e34iplQoMzItJ-7" target="kx2uJT2e34iplQoMzItJ-20" edge="1">
          <mxGeometry relative="1" as="geometry" />
        </mxCell>
        <mxCell id="kx2uJT2e34iplQoMzItJ-22" value="5V" style="edgeLabel;html=1;align=center;verticalAlign=middle;resizable=0;points=[];" parent="kx2uJT2e34iplQoMzItJ-21" vertex="1" connectable="0">
          <mxGeometry x="-0.06" y="2" relative="1" as="geometry">
            <mxPoint as="offset" />
          </mxGeometry>
        </mxCell>
        <mxCell id="kx2uJT2e34iplQoMzItJ-7" value="AC/DC Power Supply" style="rounded=1;whiteSpace=wrap;html=1;" parent="1" vertex="1">
          <mxGeometry x="460" y="280" width="120" height="60" as="geometry" />
        </mxCell>
        <mxCell id="kx2uJT2e34iplQoMzItJ-33" style="edgeStyle=orthogonalEdgeStyle;rounded=0;orthogonalLoop=1;jettySize=auto;html=1;exitX=0;exitY=0.5;exitDx=0;exitDy=0;entryX=1;entryY=0.5;entryDx=0;entryDy=0;" parent="1" source="kx2uJT2e34iplQoMzItJ-8" target="kx2uJT2e34iplQoMzItJ-29" edge="1">
          <mxGeometry relative="1" as="geometry" />
        </mxCell>
        <mxCell id="kx2uJT2e34iplQoMzItJ-34" value="AC" style="edgeLabel;html=1;align=center;verticalAlign=middle;resizable=0;points=[];" parent="kx2uJT2e34iplQoMzItJ-33" vertex="1" connectable="0">
          <mxGeometry x="0.0978" y="3" relative="1" as="geometry">
            <mxPoint y="-3" as="offset" />
          </mxGeometry>
        </mxCell>
        <mxCell id="kx2uJT2e34iplQoMzItJ-8" value="Transistor" style="rounded=1;whiteSpace=wrap;html=1;" parent="1" vertex="1">
          <mxGeometry x="460" y="540" width="120" height="60" as="geometry" />
        </mxCell>
        <mxCell id="kx2uJT2e34iplQoMzItJ-11" style="edgeStyle=orthogonalEdgeStyle;rounded=0;orthogonalLoop=1;jettySize=auto;html=1;exitX=1;exitY=0.5;exitDx=0;exitDy=0;entryX=0.003;entryY=0.129;entryDx=0;entryDy=0;entryPerimeter=0;" parent="1" source="kx2uJT2e34iplQoMzItJ-2" target="kx2uJT2e34iplQoMzItJ-1" edge="1">
          <mxGeometry relative="1" as="geometry" />
        </mxCell>
        <mxCell id="kx2uJT2e34iplQoMzItJ-12" value="1V AC" style="edgeLabel;html=1;align=center;verticalAlign=middle;resizable=0;points=[];" parent="kx2uJT2e34iplQoMzItJ-11" vertex="1" connectable="0">
          <mxGeometry x="0.055" y="4" relative="1" as="geometry">
            <mxPoint as="offset" />
          </mxGeometry>
        </mxCell>
        <mxCell id="kx2uJT2e34iplQoMzItJ-23" style="edgeStyle=orthogonalEdgeStyle;rounded=0;orthogonalLoop=1;jettySize=auto;html=1;exitX=0.5;exitY=1;exitDx=0;exitDy=0;entryX=0.5;entryY=0;entryDx=0;entryDy=0;" parent="1" source="kx2uJT2e34iplQoMzItJ-20" target="kx2uJT2e34iplQoMzItJ-1" edge="1">
          <mxGeometry relative="1" as="geometry" />
        </mxCell>
        <mxCell id="kx2uJT2e34iplQoMzItJ-20" value="3.3V LDO" style="rounded=1;whiteSpace=wrap;html=1;" parent="1" vertex="1">
          <mxGeometry x="640" y="280" width="120" height="60" as="geometry" />
        </mxCell>
        <mxCell id="kx2uJT2e34iplQoMzItJ-25" value="" style="triangle;whiteSpace=wrap;html=1;rotation=-180;" parent="1" vertex="1">
          <mxGeometry x="40" y="530" width="60" height="80" as="geometry" />
        </mxCell>
        <mxCell id="kx2uJT2e34iplQoMzItJ-28" style="edgeStyle=orthogonalEdgeStyle;rounded=0;orthogonalLoop=1;jettySize=auto;html=1;exitX=-0.01;exitY=0.873;exitDx=0;exitDy=0;entryX=1;entryY=0.5;entryDx=0;entryDy=0;exitPerimeter=0;" parent="1" source="kx2uJT2e34iplQoMzItJ-1" target="kx2uJT2e34iplQoMzItJ-8" edge="1">
          <mxGeometry relative="1" as="geometry" />
        </mxCell>
        <mxCell id="kx2uJT2e34iplQoMzItJ-42" style="edgeStyle=orthogonalEdgeStyle;rounded=0;orthogonalLoop=1;jettySize=auto;html=1;exitX=0;exitY=0.5;exitDx=0;exitDy=0;entryX=0;entryY=0.5;entryDx=0;entryDy=0;" parent="1" source="kx2uJT2e34iplQoMzItJ-29" target="kx2uJT2e34iplQoMzItJ-25" edge="1">
          <mxGeometry relative="1" as="geometry" />
        </mxCell>
        <mxCell id="kx2uJT2e34iplQoMzItJ-29" value="1hp spdt relay" style="rounded=1;whiteSpace=wrap;html=1;" parent="1" vertex="1">
          <mxGeometry x="250" y="540" width="120" height="60" as="geometry" />
        </mxCell>
        <mxCell id="kx2uJT2e34iplQoMzItJ-30" value="" style="endArrow=none;dashed=1;html=1;dashPattern=1 3;strokeWidth=2;rounded=0;" parent="1" edge="1">
          <mxGeometry width="50" height="50" relative="1" as="geometry">
            <mxPoint x="800" y="620" as="sourcePoint" />
            <mxPoint x="800" y="230" as="targetPoint" />
          </mxGeometry>
        </mxCell>
        <mxCell id="kx2uJT2e34iplQoMzItJ-31" value="" style="endArrow=none;dashed=1;html=1;dashPattern=1 3;strokeWidth=2;rounded=0;" parent="1" edge="1">
          <mxGeometry width="50" height="50" relative="1" as="geometry">
            <mxPoint x="440" y="620" as="sourcePoint" />
            <mxPoint x="800" y="620" as="targetPoint" />
          </mxGeometry>
        </mxCell>
        <mxCell id="kx2uJT2e34iplQoMzItJ-32" value="" style="endArrow=none;dashed=1;html=1;dashPattern=1 3;strokeWidth=2;rounded=0;" parent="1" edge="1">
          <mxGeometry width="50" height="50" relative="1" as="geometry">
            <mxPoint x="440" y="620" as="sourcePoint" />
            <mxPoint x="440" y="230" as="targetPoint" />
          </mxGeometry>
        </mxCell>
        <mxCell id="kx2uJT2e34iplQoMzItJ-36" value="" style="endArrow=none;dashed=1;html=1;dashPattern=1 3;strokeWidth=2;rounded=0;" parent="1" edge="1">
          <mxGeometry width="50" height="50" relative="1" as="geometry">
            <mxPoint x="220" y="180" as="sourcePoint" />
            <mxPoint x="820" y="180" as="targetPoint" />
          </mxGeometry>
        </mxCell>
        <mxCell id="kx2uJT2e34iplQoMzItJ-37" value="" style="endArrow=none;dashed=1;html=1;dashPattern=1 3;strokeWidth=2;rounded=0;" parent="1" edge="1">
          <mxGeometry width="50" height="50" relative="1" as="geometry">
            <mxPoint x="820" y="640" as="sourcePoint" />
            <mxPoint x="820" y="180" as="targetPoint" />
          </mxGeometry>
        </mxCell>
        <mxCell id="kx2uJT2e34iplQoMzItJ-38" value="" style="endArrow=none;dashed=1;html=1;dashPattern=1 3;strokeWidth=2;rounded=0;" parent="1" edge="1">
          <mxGeometry width="50" height="50" relative="1" as="geometry">
            <mxPoint x="220" y="640" as="sourcePoint" />
            <mxPoint x="820" y="640" as="targetPoint" />
          </mxGeometry>
        </mxCell>
        <mxCell id="kx2uJT2e34iplQoMzItJ-39" value="" style="endArrow=none;dashed=1;html=1;dashPattern=1 3;strokeWidth=2;rounded=0;" parent="1" edge="1">
          <mxGeometry width="50" height="50" relative="1" as="geometry">
            <mxPoint x="220" y="640" as="sourcePoint" />
            <mxPoint x="220" y="180" as="targetPoint" />
          </mxGeometry>
        </mxCell>
        <mxCell id="kx2uJT2e34iplQoMzItJ-40" value="Junction Box" style="text;html=1;strokeColor=none;fillColor=none;align=center;verticalAlign=middle;whiteSpace=wrap;rounded=0;" parent="1" vertex="1">
          <mxGeometry x="190" y="150" width="120" height="30" as="geometry" />
        </mxCell>
        <mxCell id="kx2uJT2e34iplQoMzItJ-43" value="Pump" style="text;html=1;strokeColor=none;fillColor=none;align=center;verticalAlign=middle;whiteSpace=wrap;rounded=0;" parent="1" vertex="1">
          <mxGeometry x="50" y="555" width="50" height="30" as="geometry" />
        </mxCell>
        <mxCell id="kx2uJT2e34iplQoMzItJ-44" value="&lt;h1&gt;Pump Controller V2&lt;/h1&gt;" style="text;html=1;strokeColor=none;fillColor=none;align=center;verticalAlign=middle;whiteSpace=wrap;rounded=0;" parent="1" vertex="1">
          <mxGeometry x="298" y="90" width="255" height="30" as="geometry" />
        </mxCell>
      </root>
    </mxGraphModel>
  </diagram>
</mxfile>
